<svg width="56" height="56" viewBox="0 0 56 56" fill="none" xmlns="http://www.w3.org/2000/svg">
<path id="Vector" d="M0 2C14.9117 2 27 14.0883 27 29C41.9117 29 54 41.0883 54 56M0 26.3C1.49117 26.3 2.7 27.5088 2.7 29M20.925 29C20.925 17.4434 11.5566 8.075 0 8.075M14.85 29C14.85 20.7986 8.20143 14.15 0 14.15M8.775 29C8.775 24.1537 4.8463 20.225 0 20.225M27 2C41.9117 2 54 14.0883 54 29M27 26.3C28.4912 26.3 29.7 27.5088 29.7 29M47.925 29C47.925 17.4434 38.5566 8.075 27 8.075M41.85 29C41.85 20.7986 35.2014 14.15 27 14.15M35.775 29C35.775 24.1537 31.8463 20.225 27 20.225M27 53.3C28.4912 53.3 29.7 54.5088 29.7 56M47.925 56C47.925 44.4434 38.5566 35.075 27 35.075M41.85 56C41.85 47.7986 35.2014 41.15 27 41.15M35.775 56C35.775 51.1537 31.8463 47.225 27 47.225M0 29C14.9117 29 27 41.0883 27 56M0 53.3C1.49117 53.3 2.7 54.5088 2.7 56M20.925 56C20.925 44.4434 11.5566 35.075 0 35.075M14.85 56C14.85 47.7986 8.20143 41.15 0 41.15M8.775 56C8.775 51.1537 4.8463 47.225 0 47.225" stroke="#F2F3F4" stroke-width="3"/>
</svg>
