<svg width="22" height="23" viewBox="0 0 22 23" fill="none" xmlns="http://www.w3.org/2000/svg">
<path id="instagramIcon" d="M11.0024 6.14392C7.89697 6.14392 5.39209 8.6488 5.39209 11.7543C5.39209 14.8597 7.89697 17.3646 11.0024 17.3646C14.1079 17.3646 16.6128 14.8597 16.6128 11.7543C16.6128 8.6488 14.1079 6.14392 11.0024 6.14392ZM11.0024 15.4017C8.99561 15.4017 7.35498 13.766 7.35498 11.7543C7.35498 9.74255 8.99072 8.10681 11.0024 8.10681C13.0142 8.10681 14.6499 9.74255 14.6499 11.7543C14.6499 13.766 13.0093 15.4017 11.0024 15.4017ZM18.1509 5.91443C18.1509 6.64197 17.5649 7.22302 16.8423 7.22302C16.1147 7.22302 15.5337 6.63708 15.5337 5.91443C15.5337 5.19177 16.1196 4.60583 16.8423 4.60583C17.5649 4.60583 18.1509 5.19177 18.1509 5.91443ZM21.8667 7.24255C21.7837 5.48962 21.3833 3.93689 20.0991 2.65759C18.8198 1.3783 17.2671 0.977905 15.5142 0.890015C13.7075 0.787476 8.29248 0.787476 6.48584 0.890015C4.73779 0.973022 3.18506 1.37341 1.90088 2.65271C0.616699 3.93201 0.221191 5.48474 0.133301 7.23767C0.0307617 9.04431 0.0307617 14.4593 0.133301 16.266C0.216309 18.0189 0.616699 19.5717 1.90088 20.851C3.18506 22.1302 4.73291 22.5306 6.48584 22.6185C8.29248 22.7211 13.7075 22.7211 15.5142 22.6185C17.2671 22.5355 18.8198 22.1351 20.0991 20.851C21.3784 19.5717 21.7788 18.0189 21.8667 16.266C21.9692 14.4593 21.9692 9.04919 21.8667 7.24255ZM19.5327 18.2045C19.1519 19.1615 18.4146 19.8988 17.4526 20.2845C16.0122 20.8558 12.5942 20.724 11.0024 20.724C9.41064 20.724 5.98779 20.851 4.55225 20.2845C3.59521 19.9037 2.85791 19.1664 2.47217 18.2045C1.90088 16.764 2.03271 13.3461 2.03271 11.7543C2.03271 10.1625 1.90576 6.73962 2.47217 5.30408C2.85303 4.34705 3.59033 3.60974 4.55225 3.224C5.99268 2.65271 9.41064 2.78455 11.0024 2.78455C12.5942 2.78455 16.0171 2.65759 17.4526 3.224C18.4097 3.60486 19.147 4.34216 19.5327 5.30408C20.104 6.74451 19.9722 10.1625 19.9722 11.7543C19.9722 13.3461 20.104 16.7689 19.5327 18.2045Z" fill="url(#paint0_linear_5_451)"/>
<defs>
<linearGradient id="paint0_linear_5_451" x1="10.0049" y1="2" x2="4.00488" y2="22" gradientUnits="userSpaceOnUse">
<stop stop-color="#505FD4"/>
<stop offset="0.502721" stop-color="#CF2F8A"/>
<stop offset="1" stop-color="#FDD16E"/>
</linearGradient>
</defs>
</svg>
